<?xml version="1.0"?>
<svg version="1.1" xmlns="http://www.w3.org/2000/svg" xmlns:xlink="http://www.w3.org/1999/xlink" width="170" height="170">
    <desc iVinci="yes" version="4.6" gridStep="20" showGrid="no" snapToGrid="no" codePlatform="0"/>
    <g id="Layer1" name="Layer 1" opacity="1">
        <g id="Shape1">
            <desc shapeID="1" type="0" basicInfo-basicType="0" basicInfo-roundedRectRadius="12" basicInfo-polygonSides="6" basicInfo-starPoints="5" bounding="rect(-82.9004,-82.9,165.8,165.8)" text="" font-familyName="" font-pixelSize="20" font-bold="0" font-underline="0" font-alignment="1" strokeStyle="0" markerStart="0" markerEnd="0" shadowEnabled="0" shadowOffsetX="0" shadowOffsetY="2" shadowBlur="4" shadowOpacity="160" blurEnabled="0" blurRadius="4" transform="matrix(1,0,0,1,85,85)" pers-center="0,0" pers-size="0,0" pers-start="0,0" pers-end="0,0" locked="0" mesh="" flag=""/>
            <path id="shapePath1" d="M122.488,167.9 L47.5125,167.9 C22.4325,167.9 2.09953,147.568 2.09953,122.487 L2.09953,47.513 C2.09953,22.432 22.4325,2.10001 47.5125,2.10001 L122.488,2.10001 C147.567,2.10001 167.9,22.432 167.9,47.513 L167.9,122.487 C167.9,147.568 147.567,167.9 122.488,167.9 Z" style="stroke:none;fill-rule:evenodd;fill:#0dbff2;fill-opacity:1;"/>
        </g>
        <g id="Shape2">
            <desc shapeID="2" type="0" basicInfo-basicType="0" basicInfo-roundedRectRadius="12" basicInfo-polygonSides="6" basicInfo-starPoints="5" bounding="rect(-30.5359,-48.2806,61.0718,96.5612)" text="" font-familyName="" font-pixelSize="20" font-bold="0" font-underline="0" font-alignment="1" strokeStyle="0" markerStart="0" markerEnd="0" shadowEnabled="0" shadowOffsetX="0" shadowOffsetY="2" shadowBlur="4" shadowOpacity="160" blurEnabled="0" blurRadius="4" transform="matrix(1.23507,0,0,1.23507,60.6877,94.1809)" pers-center="0,0" pers-size="0,0" pers-start="0,0" pers-end="0,0" locked="0" mesh="" flag=""/>
            <path id="shapePath2" d="M57.8426,41.5379 C53.6397,41.139 50.3099,43.4609 47.8743,47.3366 C41.4902,57.4913 46.3428,75.1764 57.2943,81.7457 C65.5828,86.7182 75.3066,82.761 76.8813,73.2682 C77.6718,68.4959 77.5297,63.3654 76.7294,58.5782 C75.188,49.3534 66.524,41.7021 57.8426,41.5379 M60.4462,146.217 C64.6553,146.357 70.7949,145.231 74.694,143.693 C85.3836,139.478 90.2399,127.431 83.5322,119.453 C71.9274,105.648 54.7241,106.306 42.8883,116.339 C36.1905,122.017 34.7257,129.605 39.918,136.752 C45.1843,144.001 51.9155,145.926 60.4462,146.217 M98.4019,35.0574 C95.9126,39.7878 92.8236,41.0377 83.0134,42.5494 C89.4173,47.4774 91.5861,53.9776 91.7269,61.5029 C91.8553,68.402 89.6532,74.1525 84.5746,78.8013 C82.5182,80.6848 80.4186,82.5238 78.3646,84.411 C74.3494,88.1014 73.9925,92.3044 77.6866,96.3604 C79.8455,98.7317 82.2341,101.03 84.9043,102.773 C102.869,114.858 101.567,139.772 80.9595,148.694 C64.9999,155.606 49.023,155.786 33.9365,147.575 C19.4997,139.718 19.4318,122.881 33.0806,112.887 C40.7986,107.235 50.8076,104.772 62.9373,103.826 C60.8451,99.621 58.0044,94.6757 61.5281,89.549 C57.5178,88.8845 54.0583,88.6041 50.7644,87.7087 C40.3638,84.8729 33.6413,78.1344 31.5158,67.5523 C29.0012,55.0237 34.9036,45.8903 45.314,40.1237 C50.7471,37.1126 57.3881,35.4551 63.6326,34.9241 C73.554,34.0817 96.4029,34.9068 98.4019,35.0574 Z" style="stroke:none;fill-rule:evenodd;fill:#ffffff;fill-opacity:1;"/>
        </g>
        <g id="Shape3">
            <desc shapeID="3" type="0" basicInfo-basicType="0" basicInfo-roundedRectRadius="12" basicInfo-polygonSides="6" basicInfo-starPoints="5" bounding="rect(-18.6039,-18.5037,37.2078,37.0074)" text="" font-familyName="" font-pixelSize="20" font-bold="0" font-underline="0" font-alignment="1" strokeStyle="0" markerStart="0" markerEnd="0" shadowEnabled="0" shadowOffsetX="0" shadowOffsetY="2" shadowBlur="4" shadowOpacity="160" blurEnabled="0" blurRadius="4" transform="matrix(1.23507,0,0,1.23507,124.049,90.6894)" pers-center="0,0" pers-size="0,0" pers-start="0,0" pers-end="0,0" locked="0" mesh="" flag=""/>
            <path id="shapePath3" d="M127.911,94.0915 C127.911,99.4147 127.902,104.083 127.916,108.752 C127.925,111.136 128.005,113.543 124.272,113.543 C120.441,113.543 120.264,111.581 120.338,108.539 C120.455,103.894 120.369,99.2418 120.369,94.0915 C114.886,94.0915 109.933,94.0384 104.979,94.1125 C102.563,94.1484 101.038,93.5605 101.072,90.7136 C101.104,87.9964 102.118,86.6243 104.969,86.6539 C108.932,86.6934 112.902,86.6984 116.861,86.6836 C118.291,86.6786 120.475,86.7083 120.475,86.7083 C120.475,86.7083 120.427,75.9928 120.328,72.4703 C120.242,69.4024 121.004,67.8054 124.267,67.8363 C127.561,67.8697 127.972,70.0323 127.951,72.3542 C127.923,76.0249 127.907,86.5724 127.907,86.5724 C127.907,86.5724 139.215,86.6959 143.181,86.6589 C146.056,86.6342 146.998,88.0804 147.026,90.7717 C147.055,93.6679 145.421,94.1385 143.062,94.1088 C138.235,94.0483 133.409,94.0915 127.911,94.0915 Z" style="stroke:none;fill-rule:evenodd;fill:#ffffff;fill-opacity:1;"/>
        </g>
    </g>
</svg>
