<?xml version="1.0"?>
<svg version="1.1" xmlns="http://www.w3.org/2000/svg" xmlns:xlink="http://www.w3.org/1999/xlink" width="170" height="170">
    <desc iVinci="yes" version="4.6" gridStep="20" showGrid="no" snapToGrid="no" codePlatform="0"/>
    <g id="Layer1" name="Layer 1" opacity="1">
        <g id="Shape1">
            <desc shapeID="1" type="0" basicInfo-basicType="0" basicInfo-roundedRectRadius="12" basicInfo-polygonSides="6" basicInfo-starPoints="5" bounding="rect(-82.9007,-82.9,165.801,165.8)" text="" font-familyName="" font-pixelSize="20" font-bold="0" font-underline="0" font-alignment="1" strokeStyle="0" markerStart="0" markerEnd="0" shadowEnabled="0" shadowOffsetX="0" shadowOffsetY="2" shadowBlur="4" shadowOpacity="160" blurEnabled="0" blurRadius="4" transform="matrix(1,0,0,1,85.0002,85)" pers-center="0,0" pers-size="0,0" pers-start="0,0" pers-end="0,0" locked="0" mesh="" flag=""/>
            <path id="shapePath1" d="M122.488,167.9 L47.5125,167.9 C22.4325,167.9 2.09953,147.568 2.09953,122.487 L2.09953,47.513 C2.09953,22.432 22.4325,2.10001 47.5125,2.10001 L122.488,2.10001 C147.567,2.10001 167.9,22.432 167.9,47.513 L167.9,122.487 C167.9,147.568 147.567,167.9 122.488,167.9 Z" style="stroke:none;fill-rule:evenodd;fill:#0dbff2;fill-opacity:1;"/>
        </g>
        <g id="Shape2">
            <desc shapeID="2" type="0" basicInfo-basicType="0" basicInfo-roundedRectRadius="12" basicInfo-polygonSides="6" basicInfo-starPoints="5" bounding="rect(-30.5361,-48.2806,61.0723,96.5612)" text="" font-familyName="" font-pixelSize="20" font-bold="0" font-underline="0" font-alignment="1" strokeStyle="0" markerStart="0" markerEnd="0" shadowEnabled="0" shadowOffsetX="0" shadowOffsetY="2" shadowBlur="4" shadowOpacity="160" blurEnabled="0" blurRadius="4" transform="matrix(1,0,0,1,70.4473,82.8313)" pers-center="0,0" pers-size="0,0" pers-start="0,0" pers-end="0,0" locked="0" mesh="" flag=""/>
            <path id="shapePath2" d="M68.1435,40.208 C64.7405,39.885 62.0445,41.765 60.0725,44.903 C54.9035,53.125 58.8325,67.444 67.6995,72.763 C74.4105,76.789 82.2835,73.585 83.5585,65.899 C84.1985,62.035 84.0835,57.881 83.4355,54.005 C82.1875,46.536 75.1725,40.341 68.1435,40.208 M70.2515,124.963 C73.6595,125.077 78.6305,124.165 81.7875,122.92 C90.4425,119.507 94.3745,109.753 88.9435,103.293 C79.5475,92.116 65.6185,92.649 56.0355,100.772 C50.6125,105.369 49.4265,111.513 53.6305,117.3 C57.8945,123.169 63.3445,124.728 70.2515,124.963 M100.983,34.961 C98.9675,38.791 96.4665,39.803 88.5235,41.027 C93.7085,45.017 95.4645,50.28 95.5785,56.373 C95.6825,61.959 93.8995,66.615 89.7875,70.379 C88.1225,71.904 86.4225,73.393 84.7595,74.921 C81.5085,77.909 81.2195,81.312 84.2105,84.596 C85.9585,86.516 87.8925,88.377 90.0545,89.788 C104.6,99.573 103.546,119.745 86.8605,126.969 C73.9385,132.565 61.0025,132.711 48.7875,126.063 C37.0985,119.701 37.0435,106.069 48.0945,97.977 C54.3435,93.401 62.4475,91.407 72.2685,90.641 C70.5745,87.236 68.2745,83.232 71.1275,79.081 C67.8805,78.543 65.0795,78.316 62.4125,77.591 C53.9915,75.295 48.5485,69.839 46.8275,61.271 C44.7915,51.127 49.5705,43.732 57.9995,39.063 C62.3985,36.625 67.7755,35.283 72.8315,34.853 C80.8645,34.171 99.3645,34.839 100.983,34.961 Z" style="stroke:none;fill-rule:evenodd;fill:#ffffff;fill-opacity:1;"/>
        </g>
        <g id="Shape3">
            <desc shapeID="3" type="0" basicInfo-basicType="0" basicInfo-roundedRectRadius="12" basicInfo-polygonSides="6" basicInfo-starPoints="5" bounding="rect(-18.6039,-18.5037,37.2078,37.0073)" text="" font-familyName="" font-pixelSize="20" font-bold="0" font-underline="0" font-alignment="1" strokeStyle="0" markerStart="0" markerEnd="0" shadowEnabled="0" shadowOffsetX="0" shadowOffsetY="2" shadowBlur="4" shadowOpacity="160" blurEnabled="0" blurRadius="4" transform="matrix(1,0,0,1,121.748,80.0044)" pers-center="0,0" pers-size="0,0" pers-start="0,0" pers-end="0,0" locked="0" mesh="" flag=""/>
            <path id="shapePath3" d="M124.876,82.759 C124.876,87.069 124.868,90.849 124.88,94.629 C124.887,96.559 124.952,98.508 121.929,98.508 C118.827,98.508 118.684,96.92 118.744,94.457 C118.839,90.696 118.769,86.929 118.769,82.759 C114.33,82.759 110.319,82.716 106.308,82.776 C104.352,82.805 103.117,82.329 103.145,80.024 C103.171,77.824 103.992,76.713 106.3,76.737 C109.509,76.769 112.723,76.773 115.929,76.761 C117.087,76.757 118.855,76.781 118.855,76.781 C118.855,76.781 118.816,68.105 118.736,65.253 C118.666,62.769 119.283,61.476 121.925,61.501 C124.592,61.528 124.925,63.279 124.908,65.159 C124.885,68.131 124.872,76.671 124.872,76.671 C124.872,76.671 134.028,76.771 137.239,76.741 C139.567,76.721 140.33,77.892 140.352,80.071 C140.376,82.416 139.053,82.797 137.143,82.773 C133.235,82.724 129.327,82.759 124.876,82.759 Z" style="stroke:none;fill-rule:evenodd;fill:#ffffff;fill-opacity:1;"/>
        </g>
    </g>
</svg>
