<?xml version="1.0"?>
<svg version="1.1" xmlns="http://www.w3.org/2000/svg" xmlns:xlink="http://www.w3.org/1999/xlink" width="170" height="170">
    <desc iVinci="yes" version="4.6" gridStep="20" showGrid="no" snapToGrid="no" codePlatform="0"/>
    <g id="Layer1" name="Layer 1" opacity="1">
        <g id="Shape1">
            <desc shapeID="1" type="0" basicInfo-basicType="0" basicInfo-roundedRectRadius="12" basicInfo-polygonSides="6" basicInfo-starPoints="5" bounding="rect(-82.9012,-82.9,165.802,165.8)" text="" font-familyName="" font-pixelSize="20" font-bold="0" font-underline="0" font-alignment="1" strokeStyle="0" markerStart="0" markerEnd="0" shadowEnabled="0" shadowOffsetX="0" shadowOffsetY="2" shadowBlur="4" shadowOpacity="160" blurEnabled="0" blurRadius="4" transform="matrix(1,0,0,1,85.0002,85)" pers-center="0,0" pers-size="0,0" pers-start="0,0" pers-end="0,0" locked="0" mesh="" flag=""/>
            <path id="shapePath1" d="M122.487,167.9 L47.513,167.9 C22.433,167.9 2.09898,147.568 2.09898,122.486 L2.09898,47.513 C2.09898,22.432 22.433,2.09998 47.513,2.09998 L122.487,2.09998 C147.567,2.09998 167.901,22.432 167.901,47.513 L167.901,122.486 C167.901,147.568 147.567,167.9 122.487,167.9 Z" style="stroke:none;fill-rule:evenodd;fill:#0dbff2;fill-opacity:1;"/>
        </g>
        <g id="Shape2">
            <desc shapeID="2" type="0" basicInfo-basicType="0" basicInfo-roundedRectRadius="12" basicInfo-polygonSides="6" basicInfo-starPoints="5" bounding="rect(-31.2315,-32.8811,62.463,65.7623)" text="" font-familyName="" font-pixelSize="20" font-bold="0" font-underline="0" font-alignment="1" strokeStyle="0" markerStart="0" markerEnd="0" shadowEnabled="0" shadowOffsetX="0" shadowOffsetY="2" shadowBlur="4" shadowOpacity="160" blurEnabled="0" blurRadius="4" transform="matrix(1,0,0,1,102.218,95.2484)" pers-center="0,0" pers-size="0,0" pers-start="0,0" pers-end="0,0" locked="0" mesh="" flag=""/>
            <path id="shapePath2" d="M90.431,72.666 C90.631,72.344 90.831,72.02 91.033,71.698 C92.845,68.822 95.315,66.657 98.277,65.034 C100.549,63.788 102.962,62.945 105.543,62.63 C106.535,62.509 107.534,62.377 108.53,62.372 C110.238,62.362 111.955,62.3529 113.651,62.516 C116.182,62.758 118.643,63.361 121.001,64.348 C123.134,65.241 125.013,66.521 126.637,68.145 C127.709,69.218 128.619,70.437 129.39,71.762 C130.949,74.44 131.867,77.345 132.435,80.357 C132.787,82.224 132.947,84.128 133.165,86.02 C133.506,88.985 133.445,91.964 133.445,94.941 C133.446,105.754 133.446,116.569 133.445,127.382 C133.445,128.126 133.445,128.128 132.693,128.129 C126.549,128.129 120.403,128.132 114.259,128.125 C113.061,128.125 113.269,128.126 113.267,127.122 C113.261,116.016 113.275,104.91 113.249,93.805 C113.242,91.264 112.991,88.737 112.197,86.296 C111.581,84.406 110.603,82.758 108.953,81.586 C107.953,80.877 106.837,80.432 105.629,80.18 C104.089,79.86 102.543,79.858 100.999,80.041 C98.545,80.332 96.31,81.162 94.586,83.016 C93.259,84.441 92.419,86.158 91.969,88.042 C91.674,89.278 91.438,90.54 91.311,91.804 C91.149,93.424 91.053,95.058 91.049,96.686 C91.026,106.901 91.037,117.114 91.037,127.328 C91.037,128.114 91.037,128.125 90.233,128.126 C84.073,128.129 77.911,128.129 71.751,128.126 C70.989,128.125 70.987,128.113 70.987,127.372 C70.986,106.474 70.986,85.577 70.987,64.678 C70.987,63.862 71.013,63.837 71.842,63.837 C77.695,63.837 83.547,63.837 89.401,63.838 C90.237,63.838 90.251,63.8529 90.251,64.677 C90.251,67.141 90.251,69.606 90.253,72.07 C90.253,72.257 90.271,72.444 90.281,72.629 C90.331,72.641 90.381,72.654 90.431,72.666 Z" style="stroke:none;fill-rule:evenodd;fill:#ffffff;fill-opacity:1;"/>
        </g>
        <g id="Shape3">
            <desc shapeID="3" type="0" basicInfo-basicType="0" basicInfo-roundedRectRadius="12" basicInfo-polygonSides="6" basicInfo-starPoints="5" bounding="rect(-10.024,-32.1456,20.048,64.2911)" text="" font-familyName="" font-pixelSize="20" font-bold="0" font-underline="0" font-alignment="1" strokeStyle="0" markerStart="0" markerEnd="0" shadowEnabled="0" shadowOffsetX="0" shadowOffsetY="2" shadowBlur="4" shadowOpacity="160" blurEnabled="0" blurRadius="4" transform="matrix(1,0,0,1,48.627,95.9826)" pers-center="0,0" pers-size="0,0" pers-start="0,0" pers-end="0,0" locked="0" mesh="" flag=""/>
            <path id="shapePath3" d="M58.651,127.314 C58.651,128.112 58.65,128.125 57.854,128.125 C51.694,128.129 45.535,128.129 39.375,128.126 C38.606,128.125 38.603,128.114 38.603,127.245 C38.603,111.636 38.603,69.914 38.603,64.662 C38.603,63.838 38.606,63.837 39.435,63.837 C45.562,63.837 51.689,63.837 57.815,63.837 C58.649,63.837 58.651,63.841 58.651,64.682 C58.651,75.121 58.651,116.876 58.651,127.314 Z" style="stroke:none;fill-rule:evenodd;fill:#ffffff;fill-opacity:1;"/>
        </g>
        <g id="Shape4">
            <desc shapeID="4" type="0" basicInfo-basicType="0" basicInfo-roundedRectRadius="12" basicInfo-polygonSides="6" basicInfo-starPoints="5" bounding="rect(-11.6696,-11.6498,23.3391,23.2996)" text="" font-familyName="" font-pixelSize="20" font-bold="0" font-underline="0" font-alignment="1" strokeStyle="0" markerStart="0" markerEnd="0" shadowEnabled="0" shadowOffsetX="0" shadowOffsetY="2" shadowBlur="4" shadowOpacity="160" blurEnabled="0" blurRadius="4" transform="matrix(1,0,0,1,48.6795,43.6384)" pers-center="0,0" pers-size="0,0" pers-start="0,0" pers-end="0,0" locked="0" mesh="" flag=""/>
            <path id="shapePath4" d="M48.694,31.992 C55.122,31.938 60.363,37.213 60.349,43.608 C60.333,50.121 55.254,55.258 48.643,55.288 C42.189,55.317 37.038,50.116 37.01,43.602 C36.983,37.25 42.347,31.833 48.694,31.992 Z" style="stroke:none;fill-rule:evenodd;fill:#ffffff;fill-opacity:1;"/>
        </g>
    </g>
</svg>
