<?xml version="1.0"?>
<svg version="1.1" xmlns="http://www.w3.org/2000/svg" xmlns:xlink="http://www.w3.org/1999/xlink" width="170" height="170">
    <desc iVinci="yes" version="4.6" gridStep="20" showGrid="no" snapToGrid="no" codePlatform="0"/>
    <g id="Layer1" name="Layer 1" opacity="1">
        <g id="Shape1">
            <desc shapeID="1" type="0" basicInfo-basicType="0" basicInfo-roundedRectRadius="12" basicInfo-polygonSides="6" basicInfo-starPoints="5" bounding="rect(-82.9,-82.8999,165.8,165.8)" text="" font-familyName="" font-pixelSize="20" font-bold="0" font-underline="0" font-alignment="1" strokeStyle="0" markerStart="0" markerEnd="0" shadowEnabled="0" shadowOffsetX="0" shadowOffsetY="2" shadowBlur="4" shadowOpacity="160" blurEnabled="0" blurRadius="4" transform="matrix(1,0,0,1,85,84.9999)" pers-center="0,0" pers-size="0,0" pers-start="0,0" pers-end="0,0" locked="0" mesh="" flag=""/>
            <path id="shapePath1" d="M122.48,167.9 L47.51,167.9 C22.4301,167.9 2.09998,147.56 2.09998,122.48 L2.09998,47.51 C2.09998,22.4301 22.4301,2.09998 47.51,2.09998 L122.48,2.09998 C147.56,2.09998 167.9,22.4301 167.9,47.51 L167.9,122.48 C167.9,147.56 147.56,167.9 122.48,167.9 Z" style="stroke:none;fill-rule:evenodd;fill:#0dbff2;fill-opacity:1;"/>
        </g>
        <g id="Shape2">
            <desc shapeID="2" type="0" basicInfo-basicType="0" basicInfo-roundedRectRadius="12" basicInfo-polygonSides="6" basicInfo-starPoints="5" bounding="rect(-52.1738,-43.7552,104.348,87.5104)" text="" font-familyName="" font-pixelSize="20" font-bold="0" font-underline="0" font-alignment="1" strokeStyle="0" markerStart="0" markerEnd="0" shadowEnabled="0" shadowOffsetX="0" shadowOffsetY="2" shadowBlur="4" shadowOpacity="160" blurEnabled="0" blurRadius="4" transform="matrix(1,0,0,1,82.8959,86.188)" pers-center="0,0" pers-size="0,0" pers-start="0,0" pers-end="0,0" locked="0" mesh="" flag=""/>
            <path id="shapePath2" d="M69.7101,115.43 C69.7101,115.43 71.1701,104.17 71.4501,100.94 C71.5,100.4 71.7101,100 72.1301,99.6301 C73.8301,98.1301 75.5,96.61 77.1801,95.09 C88.11,85.23 99.0401,75.3701 109.97,65.5001 C112.02,63.6601 114.07,61.82 116.1,59.96 C116.45,59.6401 116.89,59.2401 116.63,58.71 C116.37,58.1801 115.8,58.1801 115.27,58.22 C115.1,58.2401 114.91,58.2601 114.75,58.33 C114.01,58.6501 113.22,58.9201 112.53,59.35 C106.65,63.0301 100.78,66.7501 94.9101,70.46 C83.9001,77.4001 72.8801,84.35 61.87,91.2901 C61.4201,91.57 61.0201,91.7901 61.25,92.48 C62.37,95.8001 63.4401,99.1301 64.5301,102.46 C65.8401,106.46 67.1401,110.46 68.4501,114.47 C68.8301,115.64 69.3201,114.27 69.7101,115.43 M135.07,47.8601 C134.77,49.4301 134.49,51.0001 134.16,52.5601 C133.6,55.2901 133.01,58.0301 132.43,60.7601 C131.85,63.4901 131.26,66.22 130.68,68.96 C130.2,71.23 129.72,73.5101 129.23,75.7901 C128.66,78.5001 128.09,81.21 127.51,83.9301 C126.93,86.6801 126.35,89.4401 125.76,92.1901 C125.18,94.9001 124.61,97.61 124.03,100.33 C123.54,102.63 123.05,104.93 122.57,107.23 C121.99,109.94 121.42,112.65 120.84,115.36 C120.35,117.68 119.89,120.01 119.35,122.32 C118.98,123.91 118.66,125.55 118.04,127.05 C116.96,129.66 114.65,130.57 112.02,129.51 C110.91,129.06 109.83,128.43 108.86,127.72 C101.54,122.35 94.25,116.95 86.9601,111.54 C86.4101,111.13 86.0801,111.11 85.5701,111.61 C81.8301,115.3 78.0401,118.95 74.2801,122.64 C72.97,123.93 71.49,124.71 69.5901,124.61 C67.9201,124.52 67.37,124.12 66.87,122.52 C65.85,119.27 64.7901,116.02 63.74,112.78 C62.5601,109.13 61.37,105.49 60.1801,101.84 C59.3401,99.2701 58.5101,96.7 57.6801,94.1301 C57.5401,93.6701 57.3101,93.4001 56.8201,93.2501 C53.8101,92.34 50.8101,91.3901 47.8001,90.45 C44.23,89.33 40.6501,88.23 37.0801,87.09 C35.6901,86.6501 34.2701,86.2501 32.9401,85.6601 C30.1901,84.4201 29.99,82.2601 32.38,80.4001 C33.8901,79.23 35.6801,78.61 37.4401,77.9301 C42.87,75.83 48.3101,73.7401 53.75,71.6401 C58.9201,69.6501 64.0801,67.6601 69.25,65.6601 C74.4601,63.6501 79.6701,61.6401 84.8801,59.6301 C90.0701,57.6301 95.25,55.6401 100.44,53.6401 C105.38,51.73 110.32,49.83 115.26,47.9201 C119.68,46.21 124.09,44.46 128.53,42.8001 C131.7,41.6101 134.5,43.4101 134.87,46.7801 C134.91,47.1301 134.94,47.48 134.97,47.84 C135.01,47.85 135.04,47.85 135.07,47.8601 Z" style="stroke:none;fill-rule:evenodd;fill:#ffffff;fill-opacity:1;"/>
        </g>
        <g id="Shape3">
            <desc shapeID="3" type="0" basicInfo-basicType="0" basicInfo-roundedRectRadius="12" basicInfo-polygonSides="6" basicInfo-starPoints="5" bounding="rect(-27.7627,-29.1437,55.5256,58.2874)" text="" font-familyName="" font-pixelSize="20" font-bold="0" font-underline="0" font-alignment="1" strokeStyle="0" markerStart="0" markerEnd="0" shadowEnabled="0" shadowOffsetX="0" shadowOffsetY="2" shadowBlur="4" shadowOpacity="160" blurEnabled="0" blurRadius="4" transform="matrix(1,0,0,1,88.9457,87.3484)" pers-center="0,0" pers-size="0,0" pers-start="0,0" pers-end="0,0" locked="0" mesh="" flag=""/>
            <path id="shapePath3" d="M69.85,116.12 C69.7901,116.57 69.1701,116.63 69.0301,116.2 C67.2801,110.84 62.2001,95.2901 61.25,92.4801 C61.0201,91.7901 61.4201,91.57 61.87,91.2901 C72.88,84.3501 83.9001,77.4001 94.9101,70.46 C100.78,66.7501 106.65,63.0301 112.53,59.3501 C113.22,58.9201 114.01,58.6501 114.75,58.33 C114.91,58.2601 115.1,58.2401 115.27,58.22 C115.8,58.1801 116.37,58.1801 116.63,58.71 C116.89,59.2401 116.45,59.6401 116.1,59.96 C114.07,61.82 112.02,63.6601 109.97,65.5001 C99.0401,75.3701 88.11,85.2301 77.1801,95.09 C75.5,96.6101 73.8301,98.1301 72.13,99.6301 C71.7101,100 71.5,100.4 71.4501,100.94 C71.23,103.44 70.2901,112.25 69.85,116.12 Z" style="stroke:none;fill-rule:evenodd;fill:#0dbff2;fill-opacity:1;"/>
        </g>
    </g>
</svg>
