<?xml version="1.0"?>
<svg version="1.1" xmlns="http://www.w3.org/2000/svg" xmlns:xlink="http://www.w3.org/1999/xlink" width="170" height="170">
    <desc iVinci="yes" version="4.6" gridStep="20" showGrid="no" snapToGrid="no" codePlatform="0"/>
    <g id="Layer1" name="Layer 1" opacity="1">
        <g id="Shape1">
            <desc shapeID="1" type="0" basicInfo-basicType="0" basicInfo-roundedRectRadius="12" basicInfo-polygonSides="6" basicInfo-starPoints="5" bounding="rect(-82.9012,-82.9,165.802,165.8)" text="" font-familyName="" font-pixelSize="20" font-bold="0" font-underline="0" font-alignment="1" strokeStyle="0" markerStart="0" markerEnd="0" shadowEnabled="0" shadowOffsetX="0" shadowOffsetY="2" shadowBlur="4" shadowOpacity="160" blurEnabled="0" blurRadius="4" transform="matrix(1,0,0,1,85.0002,85)" pers-center="0,0" pers-size="0,0" pers-start="0,0" pers-end="0,0" locked="0" mesh="" flag=""/>
            <path id="shapePath1" d="M122.487,167.9 L47.513,167.9 C22.433,167.9 2.09901,147.568 2.09901,122.487 L2.09901,47.513 C2.09901,22.432 22.433,2.09999 47.513,2.09999 L122.487,2.09999 C147.567,2.09999 167.901,22.432 167.901,47.513 L167.901,122.487 C167.901,147.568 147.567,167.9 122.487,167.9 Z" style="stroke:none;fill-rule:evenodd;fill:#0dbff2;fill-opacity:1;"/>
        </g>
        <g id="Shape2">
            <desc shapeID="2" type="0" basicInfo-basicType="0" basicInfo-roundedRectRadius="12" basicInfo-polygonSides="6" basicInfo-starPoints="5" bounding="rect(-58.8757,-33.9723,117.752,67.9444)" text="" font-familyName="" font-pixelSize="20" font-bold="0" font-underline="0" font-alignment="1" strokeStyle="0" markerStart="0" markerEnd="0" shadowEnabled="0" shadowOffsetX="0" shadowOffsetY="2" shadowBlur="4" shadowOpacity="160" blurEnabled="0" blurRadius="4" transform="matrix(1,0,0,1,84.995,89.6529)" pers-center="0,0" pers-size="0,0" pers-start="0,0" pers-end="0,0" locked="0" mesh="" flag=""/>
            <path id="shapePath2" d="M29.489,59.119 C27.034,59.119 25.402,61.659 26.434,63.885 C31.231,74.248 43.035,98.603 51.894,107.463 C62.319,117.887 69.997,122.775 89.106,123.523 C92.143,123.643 94.674,121.197 94.674,118.157 L94.674,114.053 C94.674,110.469 97.579,107.564 101.163,107.564 C101.733,107.564 102.273,107.817 102.638,108.255 L111.837,119.284 C114.131,122.035 117.529,123.625 121.111,123.625 L138.831,123.625 C142.665,123.625 144.847,119.3 142.622,116.177 C136.966,108.241 124.623,97.113 124.623,97.113 C122.817,95.077 122.735,92.036 124.431,89.907 C124.431,89.907 137.075,76.699 143.221,66.157 C145.039,63.036 142.833,59.119 139.219,59.119 C132.862,59.119 123.827,59.119 119.175,59.119 C117.386,59.119 115.794,60.231 115.183,61.913 C113.095,67.656 107.722,80.913 100.098,88.844 C98.709,90.288 96.266,89.545 95.859,87.584 C95.017,83.523 94.174,75.916 94.919,62.695 C95.106,59.395 92.69,56.513 89.403,56.169 C82.421,55.439 71.181,54.993 66.61,58.893 C65.614,59.743 65.987,61.368 67.221,61.809 C69.181,62.511 71.706,63.776 71.706,65.643 C71.706,68.695 73.473,89.653 69.618,89.653 C65.915,89.653 56.99,79.629 49.931,61.404 C49.402,60.036 48.101,59.119 46.634,59.119 L29.489,59.119 Z" style="stroke:none;fill-rule:evenodd;fill:#ffffff;fill-opacity:1;"/>
        </g>
    </g>
</svg>
