<?xml version="1.0"?>
<svg version="1.1" xmlns="http://www.w3.org/2000/svg" xmlns:xlink="http://www.w3.org/1999/xlink" width="170" height="170">
    <desc iVinci="yes" version="4.6" gridStep="20" showGrid="no" snapToGrid="no" codePlatform="0"/>
    <g id="Layer1" name="Layer 1" opacity="1">
        <g id="Shape1">
            <desc shapeID="1" type="0" basicInfo-basicType="0" basicInfo-roundedRectRadius="12" basicInfo-polygonSides="6" basicInfo-starPoints="5" bounding="rect(-82.9,-82.9033,165.8,165.805)" text="" font-familyName="" font-pixelSize="20" font-bold="0" font-underline="0" font-alignment="1" strokeStyle="0" markerStart="0" markerEnd="0" shadowEnabled="0" shadowOffsetX="0" shadowOffsetY="2" shadowBlur="4" shadowOpacity="160" blurEnabled="0" blurRadius="4" transform="matrix(1,0,0,1,85,85.0008)" pers-center="0,0" pers-size="0,0" pers-start="0,0" pers-end="0,0" locked="0" mesh="" flag=""/>
            <path id="shapePath1" d="M122.487,167.903 L47.514,167.903 C22.432,167.903 2.10001,147.571 2.10001,122.49 L2.10001,47.5105 C2.10001,22.4305 22.432,2.0975 47.514,2.0975 L122.487,2.0975 C147.568,2.0975 167.9,22.4305 167.9,47.5105 L167.9,122.49 C167.9,147.571 147.568,167.903 122.487,167.903 Z" style="stroke:none;fill-rule:evenodd;fill:#0dbff2;fill-opacity:1;"/>
        </g>
        <g id="Shape2">
            <desc shapeID="2" type="0" basicInfo-basicType="0" basicInfo-roundedRectRadius="12" basicInfo-polygonSides="6" basicInfo-starPoints="5" bounding="rect(-36.1033,-50.314,72.2067,100.628)" text="" font-familyName="" font-pixelSize="20" font-bold="0" font-underline="0" font-alignment="1" strokeStyle="0" markerStart="0" markerEnd="0" shadowEnabled="0" shadowOffsetX="0" shadowOffsetY="2" shadowBlur="4" shadowOpacity="160" blurEnabled="0" blurRadius="4" transform="matrix(0.611137,0,0,0.611137,55.0547,78.7756)" pers-center="0,0" pers-size="0,0" pers-start="0,0" pers-end="0,0" locked="0" mesh="" flag=""/>
            <path id="shapePath2" d="M42.4618,48.0274 C41.4009,48.0274 40.508,48.4002 40.0576,49.1293 C39.5932,49.8816 39.6634,50.8515 40.1591,51.833 L52.0781,72.4656 C52.0982,72.5047 52.0982,72.5297 52.0781,72.5658 L33.3479,105.619 C32.8596,106.591 32.8835,107.569 33.3479,108.323 C33.7977,109.048 34.5904,109.524 35.6525,109.524 L53.2802,109.524 C55.9154,109.524 57.1872,107.746 58.088,106.12 C58.088,106.12 76.4056,73.7239 77.1188,72.4662 C77.0467,72.3501 65,51.3331 65,51.3331 C64.1205,49.7704 62.7962,48.0268 60.0925,48.0268 L42.4618,48.0268 L42.4618,48.0274 Z" style="stroke:none;fill-rule:nonzero;fill:#ffffff;fill-opacity:1;"/>
        </g>
        <g id="Shape3">
            <desc shapeID="3" type="0" basicInfo-basicType="0" basicInfo-roundedRectRadius="12" basicInfo-polygonSides="6" basicInfo-starPoints="5" bounding="rect(-52.7193,-100,105.439,200)" text="" font-familyName="" font-pixelSize="20" font-bold="0" font-underline="0" font-alignment="1" strokeStyle="0" markerStart="0" markerEnd="0" shadowEnabled="0" shadowOffsetX="0" shadowOffsetY="2" shadowBlur="4" shadowOpacity="160" blurEnabled="0" blurRadius="4" transform="matrix(0.611137,0,0,0.611137,104.791,85)" pers-center="0,0" pers-size="0,0" pers-start="0,0" pers-end="0,0" locked="0" mesh="" flag=""/>
            <path id="shapePath3" d="M116.519,23.8881 C113.886,23.8881 112.745,25.5467 111.8,27.2457 C111.8,27.2457 73.8235,94.593 72.5719,96.8041 C72.6361,96.9239 97.6187,142.756 97.6187,142.756 C98.4939,144.319 99.8439,146.114 102.545,146.114 L120.151,146.114 C121.214,146.114 122.043,145.714 122.491,144.987 C122.961,144.236 122.948,143.241 122.455,142.263 L97.6035,96.8585 C97.5796,96.8237 97.5796,96.7778 97.6035,96.743 L136.633,27.7334 C137.123,26.7592 137.134,25.7655 136.67,25.0126 C136.22,24.2866 135.388,23.8863 134.326,23.8863 L116.518,23.8863 L116.518,23.8875 L116.519,23.8875 L116.519,23.8881 Z" style="stroke:none;fill-rule:nonzero;fill:#ffffff;fill-opacity:1;"/>
        </g>
    </g>
</svg>
