<?xml version="1.0"?>
<svg version="1.1" xmlns="http://www.w3.org/2000/svg" xmlns:xlink="http://www.w3.org/1999/xlink" width="500" height="340">
    <desc iVinci="yes" version="4.6" gridStep="20" showGrid="no" snapToGrid="no" codePlatform="0"/>
    <g id="Layer1" name="Layer 1" opacity="1">
        <g id="Shape1">
            <desc shapeID="1" type="0" basicInfo-basicType="0" basicInfo-roundedRectRadius="12" basicInfo-polygonSides="6" basicInfo-starPoints="5" bounding="rect(-264.696,-249.659,529.394,499.318)" text="" font-familyName="" font-pixelSize="20" font-bold="0" font-underline="0" font-alignment="1" strokeStyle="0" markerStart="0" markerEnd="0" shadowEnabled="0" shadowOffsetX="0" shadowOffsetY="2" shadowBlur="4" shadowOpacity="160" blurEnabled="0" blurRadius="4" transform="matrix(0.482902,0,0,0.482907,265.77,120.562)" pers-center="0,0" pers-size="0,0" pers-start="0,0" pers-end="0,0" locked="0" mesh="" flag=""/>
            <path id="shapePath1" d="M156.15,106.701 C164.549,97.8145 175.123,92.1366 185.8,86.6606 C200.581,78.1113 217.189,73.8344 233.463,69.1795 C237.326,68.3104 239.258,64.5918 241.383,61.7428 C247.067,54.5191 254.694,49.1256 261.713,43.2957 C293.441,19.3371 332.143,5.25974 371.381,0.124054 C373.892,-0.551765 375.196,1.66943 376.451,3.50449 C383.405,13.6453 388.089,24.7522 390.987,36.6801 C394.261,49.0296 394.315,62.2042 391.904,74.6847 C388.755,89.7177 381.573,103.197 373.554,116.118 C373.264,116.553 373.216,117.277 372.878,117.47 C368.966,119.788 370.222,122.492 372.105,125.438 C380.05,139.256 383.126,156.161 379.542,171.797 C377.369,182.421 372.443,191.451 365.296,199.274 C351.81,213.379 333.919,222.226 315.798,228.828 C302.28,233.517 288.226,236.215 274.268,239.162 C269.971,240.466 265.286,240.417 260.844,241.094 C259.83,241.239 259.299,240.852 258.671,240.273 C257.753,239.355 258.719,238.776 259.154,238.196 L301.504,183.435 C301.698,183.194 301.891,182.952 302.084,182.711 C305.561,177.833 305.513,177.93 301.359,173.487 C291.795,162.91 281.515,152.986 272.192,142.195 C270.261,139.829 267.798,138.525 264.852,138.911 C246.442,138.997 228.002,139.051 209.608,138.187 C206.71,138.042 204.634,139.152 202.751,141.567 C188.358,160.564 173.525,179.231 159.434,198.453 C158.323,199.998 157.309,200.095 155.86,198.84 C153.784,197.005 152.77,194.445 151.273,192.224 C133.865,166.926 131.561,128.032 156.15,106.701 Z" style="stroke:none;fill-rule:evenodd;fill:#00bef5;fill-opacity:1;"/>
        </g>
        <g id="Shape2">
            <desc shapeID="2" type="0" basicInfo-basicType="0" basicInfo-roundedRectRadius="12" basicInfo-polygonSides="6" basicInfo-starPoints="5" bounding="rect(-288.679,-261.412,577.359,522.824)" text="" font-familyName="" font-pixelSize="20" font-bold="0" font-underline="0" font-alignment="1" strokeStyle="0" markerStart="0" markerEnd="0" shadowEnabled="0" shadowOffsetX="0" shadowOffsetY="2" shadowBlur="4" shadowOpacity="160" blurEnabled="0" blurRadius="4" transform="matrix(0.482902,0,0,0.482907,334.826,201.899)" pers-center="0,0" pers-size="0,0" pers-start="0,0" pers-end="0,0" locked="0" mesh="" flag=""/>
            <path id="shapePath2" d="M198.404,325.602 C197.294,325.505 195.942,325.457 195.507,324.153 C195.121,322.946 196.135,322.125 196.859,321.207 L240.417,263.984 C241.866,262.293 243.314,261.279 245.729,261.617 C263.969,262.816 283.114,262.234 300.828,257.802 C302.036,257.174 303.581,256.933 304.45,258.334 C305.368,259.782 304.112,260.555 303.243,261.714 C297.242,269.356 292.404,277.801 286.583,285.569 C286.196,286.149 285.472,286.583 285.858,287.452 C286.293,288.274 287.114,288.129 287.79,288.032 C305.596,285.222 323.617,281.408 340.33,274.172 C351.437,269.73 362.061,264.032 371.815,257.029 C383.783,247.505 395.427,237.109 402.577,223.323 C410.108,211.031 413.505,197.09 417.112,183.338 C418.271,175.467 418.609,167.547 418.078,159.579 C417.407,147.251 412.941,135.001 405.233,125.341 C402.335,121.961 402.721,122.154 405.233,117.953 C413.838,105.549 415.615,90.4746 420.879,76.8094 C421.603,75.2156 422.762,75.5058 423.921,76.3264 C431.294,81.0782 437.71,87.1234 443.623,93.5663 C448.646,99.1679 453.427,104.866 457.579,111.192 C465.258,122.975 469.845,136.062 473.032,149.583 C474.918,157.696 474.143,166.195 473.612,174.549 C472.791,187.588 468.928,199.902 463.761,211.781 C455.846,230.886 443.234,247.883 429.136,262.873 C421.555,271.613 411.945,278.181 402.963,285.328 C379.087,301.861 351.815,312.295 323.815,319.421 C308.893,322.512 293.923,325.022 278.76,326.327 C252.092,329.083 225.063,328.572 198.404,325.602 Z" style="stroke:none;fill-rule:evenodd;fill:#353537;fill-opacity:1;"/>
        </g>
        <g id="Shape3">
            <desc shapeID="3" type="0" basicInfo-basicType="0" basicInfo-roundedRectRadius="12" basicInfo-polygonSides="6" basicInfo-starPoints="5" bounding="rect(-244.781,-279.383,489.563,558.765)" text="" font-familyName="" font-pixelSize="20" font-bold="0" font-underline="0" font-alignment="1" strokeStyle="0" markerStart="0" markerEnd="0" shadowEnabled="0" shadowOffsetX="0" shadowOffsetY="2" shadowBlur="4" shadowOpacity="160" blurEnabled="0" blurRadius="4" transform="matrix(0.482902,0,0,0.482907,143.976,148.442)" pers-center="0,0" pers-size="0,0" pers-start="0,0" pers-end="0,0" locked="0" mesh="" flag=""/>
            <path id="shapePath3" d="M33.106,134.565 C36.9209,124.907 41.0739,115.49 46.579,106.749 C50.8286,99.989 54.8367,92.9869 60.5833,87.24 C72.8676,71.8101 88.7451,59.6086 105.542,49.3803 C115.924,43.006 126.983,37.7905 138.282,33.6378 C149.921,28.2501 162.528,26.1338 174.645,22.3377 C190.629,18.6191 206.903,17.1706 223.177,15.432 C235.298,13.8624 247.587,15.2149 259.685,13.5489 C260.699,13.5005 261.906,13.4041 262.148,14.8046 C262.389,16.0118 261.279,16.2531 260.554,16.8325 C247.467,25.9275 233.786,35.0244 223.226,47.1106 C221.487,49.2839 219.314,51.3122 215.934,51.1189 C211.105,50.8292 206.469,51.988 201.833,53.0988 C188.045,56.0407 173.761,58.8413 160.979,64.9783 C144.112,71.3858 128.715,81.0464 114.814,92.407 C105.107,101.631 96.7047,111.868 89.9438,123.41 C85.3503,132.929 80.5931,142.561 79.32,153.205 C77.2916,162.863 77.0988,172.618 78.4024,182.469 C79.5612,191.21 81.2035,199.805 85.2597,207.773 C85.6943,208.642 85.7427,209.946 86.9984,210.091 C88.2056,210.236 88.6881,209.125 89.3644,208.353 L110.612,181.503 C110.999,180.682 111.819,180.393 112.737,180.634 C113.606,180.876 113.606,181.6 113.751,182.372 C115.297,190.292 118.677,197.197 123.409,203.862 C128.045,210.429 133.598,215.693 139.876,220.473 C142.339,222.357 142.484,224.047 140.07,226.172 C125.404,244.49 110.352,262.547 96.415,281.416 C95.1109,283.396 93.2758,283.976 91.3927,282.624 C81.7344,275.67 72.5595,268.233 64.3982,259.492 C55.2437,249.624 46.4114,239.12 40.253,227.089 C35.7137,216.997 30.8846,207.097 28.277,196.377 C23.5478,175.843 25.705,154.204 33.106,134.565 Z" style="stroke:none;fill-rule:evenodd;fill:#353537;fill-opacity:1;"/>
        </g>
        <g id="Shape4">
            <desc shapeID="4" type="0" basicInfo-basicType="0" basicInfo-roundedRectRadius="12" basicInfo-polygonSides="6" basicInfo-starPoints="5" bounding="rect(-165.132,-185.869,330.263,371.738)" text="" font-familyName="" font-pixelSize="20" font-bold="0" font-underline="0" font-alignment="1" strokeStyle="0" markerStart="0" markerEnd="0" shadowEnabled="0" shadowOffsetX="0" shadowOffsetY="2" shadowBlur="4" shadowOpacity="160" blurEnabled="0" blurRadius="4" transform="matrix(0.482902,0,0,0.482907,190.669,248.928)" pers-center="0,0" pers-size="0,0" pers-start="0,0" pers-end="0,0" locked="0" mesh="" flag=""/>
            <path id="shapePath4" d="M125.148,338.641 C122.25,338.93 120.512,337.82 119.353,335.163 C116.455,328.499 112.592,322.222 111.433,314.833 C110.66,310.004 110.226,305.996 114.331,301.602 L218.493,165.76 C222.598,160.304 227.524,158.807 233.753,159.241 C239.596,159.676 245.536,159.096 251.379,160.497 C252.49,160.787 253.745,160.787 254.518,161.559 C259.685,166.726 264.852,171.893 269.874,177.205 C270.84,178.219 270.406,179.716 269.343,180.876 C230.077,230.194 195.416,283.141 155.088,331.686 C153.977,333.232 152.818,334.777 151.611,336.274 C150.017,338.254 147.409,337.916 145.237,338.061 C138.561,339.117 131.848,338.414 125.148,338.641 Z" style="stroke:none;fill-rule:evenodd;fill:#00bef5;fill-opacity:1;"/>
        </g>
    </g>
</svg>
