<?xml version="1.0"?>
<svg version="1.1" xmlns="http://www.w3.org/2000/svg" xmlns:xlink="http://www.w3.org/1999/xlink" width="1000" height="1000">
    <desc iVinci="yes" version="4.6" gridStep="20" showGrid="no" snapToGrid="no" codePlatform="0"/>
    <g id="Layer1" name="Layer 1" opacity="1">
        <g id="Shape1">
            <desc shapeID="1" type="0" basicInfo-basicType="0" basicInfo-roundedRectRadius="12" basicInfo-polygonSides="6" basicInfo-starPoints="5" bounding="rect(-500.75,-500.75,1001.5,1001.5)" text="" font-familyName="" font-pixelSize="20" font-bold="0" font-underline="0" font-alignment="1" strokeStyle="0" markerStart="0" markerEnd="0" shadowEnabled="0" shadowOffsetX="0" shadowOffsetY="2" shadowBlur="4" shadowOpacity="160" blurEnabled="0" blurRadius="4" transform="matrix(1,0,0,1,501.95,501.95)" pers-center="0,0" pers-size="0,0" pers-start="0,0" pers-end="0,0" locked="0" mesh="" flag=""/>
            <path id="shapePath1" d="M501.9,1002.6 C337,1002.6 172,1002.6 7.10001,1002.7 C2.29999,1002.7 1.20001,1001.6 1.20001,996.8 C1.29999,666.9 1.29999,337 1.20001,7.10001 C1.20001,2.29999 2.29999,1.20001 7.10001,1.20001 C337,1.29999 666.9,1.29999 996.8,1.20001 C1001.6,1.20001 1002.7,2.29999 1002.7,7.10001 C1002.6,337 1002.6,666.9 1002.7,996.8 C1002.7,1001.6 1001.6,1002.7 996.8,1002.7 C831.8,1002.6 666.9,1002.6 501.9,1002.6 M279.9,480.2 C281.3,518.3 289.1,550.3 308.4,579 C311.5,583.6 313.5,588.9 317.9,592.7 C320.8,595.3 323,595.1 325.3,591.9 C334.2,579.4 343.5,567.1 353,555 C374,528.3 394,500.8 415,474.1 C418.9,469.1 423.2,466.8 429.2,467.1 C437.3,467.5 445.5,468.1 453.6,468.2 C471.2,468.4 488.8,468.1 506.4,468.5 C518.8,468.8 531.2,470.2 543.6,468.6 C549.7,467.8 554.7,470.5 558.8,475.4 C563.3,480.8 568,486.1 572.9,491.1 C588.6,507.2 603.8,523.8 619.2,540.2 C627.8,549.3 628,549.2 620.7,559.3 C620.3,559.8 619.9,560.3 619.5,560.8 C606.1,578 592.7,595.2 579.4,612.4 C569,625.9 558.3,639.2 548.3,653 C543.1,660.3 536.9,666.8 531.8,674.2 C530.9,675.5 528.9,676.6 530.8,678.5 C532,679.7 533.1,680.5 535.3,680.2 C544.6,678.8 554.3,678.9 563.1,676.2 C579.3,671.3 596.3,670.7 612.4,665.5 C624.5,661.5 637.3,659.5 649.1,654.8 C669.4,646.7 689.8,639.1 708.6,627.3 C724.2,617.4 739.2,607.1 751.6,593.6 C766.4,577.4 776.6,558.7 781.1,536.7 C784.3,521.2 785.5,505.5 782.8,490.5 C779.7,473.4 775.3,455.9 765.7,440.7 C761.8,434.6 759.3,429 767.3,424.2 C768.1,423.7 768.2,422.3 768.7,421.4 C775.2,411.6 780,400.8 786.3,390.9 C797.2,373.9 800.8,354.3 806.7,335.6 C810,325.2 809.2,313 810,301.6 C811,286.6 808.4,271.7 804.8,256.9 C798.8,232.2 789.1,209.2 774.7,188.2 C772.1,184.5 769.4,179.9 764.2,181.2 C751.4,184.6 738,183.4 725.2,187.3 C720.4,188.8 716.2,191.7 711,192.4 C707.2,192.9 703.4,192 699.6,193.3 C677.7,200.8 655.1,206.2 634.1,216.2 C626.5,219.8 618.2,221.5 610.9,225.4 C598.1,232.3 585,238.8 572.6,246.4 C560.4,253.9 548.6,262 537.1,270.6 C526.4,278.7 516.3,287.7 506.2,296.6 C502.1,300.2 498.4,304.3 495,308.8 C490.6,314.7 486.6,322.4 478.6,324.2 C464.4,327.4 451,332.9 436.9,336.5 C416.9,341.7 398.2,350.7 379.9,360.4 C376.2,362.4 372.7,365 368.8,366.5 C348.8,373.7 334,388.6 318.5,401.9 C304.1,414.2 293.5,430.1 288,448.6 C284.5,460.3 278.8,471.6 279.9,480.2 M547.2,858.5 C555.6,859.5 564,857.6 572.5,856.8 C603.9,854 635,848.9 665.8,842.5 C677.4,840.1 688.1,834.7 699.6,832.6 C718,829.2 734.6,820.9 751.4,813.9 C771.9,805.4 793.1,797.1 811,783.1 C816.8,778.6 824.1,776.4 829.7,771.9 C848.3,757.1 868.2,743.5 883.9,725.4 C887.1,721.7 891.3,719.1 894.3,715.3 C898.9,709.7 902.3,703 907.5,698 C920.9,685.2 927.7,667.9 938.5,653.3 C945.9,643.3 950.5,631.2 955.6,619.6 C966.3,595 974.3,569.5 976,542.5 C977.1,525.2 978.8,507.6 974.8,490.8 C968.2,462.8 958.8,435.8 942.8,411.3 C934.2,398.2 924.3,386.4 913.9,374.8 C906.9,367 899.3,359.9 891.6,352.9 C885.9,347.8 879.3,343.6 873.1,339.1 C870.7,337.4 868.2,336.8 866.8,340.1 C864.9,344.4 862.4,348.8 861.9,353.3 C859.8,372.2 851.4,388.9 844.4,406 C841.7,412.7 838.1,419.2 834.4,425.3 C829.2,434 828.4,433.6 834.4,440.6 C845.3,453.4 851.6,468.5 856.5,484.4 C859.2,493.3 860.3,502.3 861,511.5 C862.1,528 861.4,544.3 859,560.7 C857.7,569.9 853.3,578.3 851.7,587.3 C848.1,607.7 838,625.5 828.9,643.5 C821.5,658.2 810.1,670.8 799.8,683.8 C796.9,687.5 792.6,689.1 789.3,692.2 C781.5,699.5 773.9,707.1 765.2,713.3 C745,727.8 723,739.5 700,748.8 C674.2,759.2 647.9,768.6 620,771.7 C617.7,772 615.2,772.3 613.2,773.4 C606.3,777.2 598.6,776.6 591.2,777.5 C589.8,777.7 588.1,778.1 587.2,776.3 C586.3,774.6 587.8,773.7 588.7,772.4 C592.9,766.3 597.6,760.4 601.6,754 C608.3,743.3 615.7,733.1 623.2,723 C624.9,720.7 627.6,719 625.7,716 C623.9,713.1 620.7,713.6 618.2,714.9 C609.5,719.4 600,719.3 590.6,719.8 C587.8,720 585,720.2 582.3,720.5 C556.3,723.9 530.3,726 504.1,722.8 C499.1,722.2 496.2,724.2 493.1,727.7 C483,739.5 475.3,753.2 464.8,764.9 C460.4,769.8 455.5,774.5 452.5,781 C447.9,791 440.1,798.9 432.4,806.7 C430.6,808.5 428.9,810.5 427.7,812.8 C420.9,825 411.6,835.3 402.9,846.2 C401.4,848.1 399.3,849.7 400.1,852.3 C400.9,854.9 403.8,855.1 406.1,855.3 C418.3,856.4 430.5,856.9 442.5,859.3 C448.3,860.4 454.1,860.9 459.8,860 C468,858.6 476.1,859.6 484.2,859.8 C488.5,859.9 492.8,860.3 497,860.6 C513.6,862 530.2,858.8 547.2,858.5 M47.8,539.9 C46.6,546.5 49.2,552.7 49.7,559.1 C50.5,568.7 51.3,578.4 53.6,587.7 C59,609.9 69,630.4 78.2,651.1 C84.3,664.8 93.8,676.3 102.4,688.1 C110,698.6 119.1,708.5 128.2,718.2 C145.1,736.3 164.2,751.7 184.1,766.1 C188,768.9 191.8,767.8 194.5,763.6 C204,749.1 215.4,736.1 226.3,722.7 C237.3,709.1 246.9,694.4 259,681.7 C268.6,671.7 274.2,658.5 284.9,649.2 C289.9,644.8 289.6,641.4 284.5,637.4 C271.5,627.5 260.1,616.5 250.4,603 C240.6,589.2 233.6,574.9 230.4,558.5 C230.1,557 230.1,555.4 228.3,554.9 C226.4,554.4 224.7,555 223.9,556.7 C220.1,564.6 212.9,569.7 207.9,576.5 C198.9,588.7 189.8,600.8 179.9,612.3 C178.5,613.9 177.5,616.2 175,615.9 C172.4,615.6 172.3,612.9 171.4,611.1 C163,594.6 159.6,576.8 157.2,558.7 C154.5,538.4 154.9,518.1 159.1,498.1 C161.6,486.1 163.2,473.7 169.1,462.5 C173.6,454 176.3,444.6 181.1,436.4 C195.1,412.5 212.5,391.3 232.6,372.2 C236.7,368.3 241.9,366.4 246.1,362.7 C251.4,358.1 256.1,352.7 262.3,349.1 C269.2,345.2 276.7,342.1 282.9,337.6 C296.9,327.5 312.9,322.2 328.2,315.4 C333.2,313.2 337.9,310 343.3,308.6 C351.8,306.4 360.4,305 368.5,301.5 C382.6,295.4 398,294.3 412.8,290.8 C422.5,288.5 432.1,286.2 442,286.7 C449,287.1 453.5,282.9 457.1,278.4 C477.041,251.181 504.1,236.798 534.4,215.7 C535.9,214.6 538.2,214 537.7,211.5 C537.2,208.6 534.7,208.8 532.6,208.9 C527.3,209.2 522,210.5 516.6,210.5 C496.7,210.8 476.9,210.7 457,212.8 C423.3,216.4 389.6,219.4 356.5,227.1 C350.8,228.4 345.6,231.2 339.9,232.1 C319.4,235.2 300.3,243.5 281.2,250.5 C257.8,259.1 235,269.9 213.4,283.1 C190.4,297.2 168.2,312.4 149,331.5 C144.4,336 138.4,338.8 134.6,344.2 C130.3,350.3 125.7,356.2 120.3,361.5 C108.4,373.3 100.1,387.9 91.3,401.9 C79.9,420 71.2,439.5 63.4,459.5 C53.4,485.6 49.8,512.5 47.8,539.9 M267.2,882.2 C275.9,883.1 286,881.8 296,881 C300.4,880.6 305.9,881.4 309.2,877.3 C311.7,874.2 314,871 316.4,867.8 C326.3,854.2 335.6,840.5 347.9,828.7 C358.2,818.9 365.9,806.4 374.2,794.8 C388.1,775.3 403.1,756.7 417,737.2 C431.3,717.1 447,697.9 461.1,677.7 C473.1,660.5 486.6,644.6 498.6,627.4 C515.8,602.8 532.9,577.9 553,555.5 C555.2,553.1 556,550 554.1,547.9 C543.7,536.9 533,526.2 522.3,515.5 C520.6,513.8 518.1,513.8 515.8,513.3 C503.8,510.3 491.5,511.6 479.3,510.7 C466.5,509.8 456.3,512.9 447.7,524.2 C439.8,534.7 431.9,545.3 423.5,555.4 C412.7,568.4 402.5,582 392.7,595.8 C374,622 352.9,646.4 333.7,672.3 C319.5,691.5 304.6,710.2 290.1,729.1 C282.3,739.2 274,748.9 266.3,759.1 C254.8,774.5 244.9,791.4 232,805.5 C223.6,814.6 224.5,823 226,832.9 C228.4,848.1 236.4,861.1 242.4,875 C244.8,880.5 248.4,882.8 254.4,882.2 C258.1,881.9 262,882.2 267.2,882.2 Z" style="stroke:none;fill-rule:evenodd;fill:#fefefe;fill-opacity:1;"/>
        </g>
        <g id="Shape2">
            <desc shapeID="2" type="0" basicInfo-basicType="0" basicInfo-roundedRectRadius="12" basicInfo-polygonSides="6" basicInfo-starPoints="5" bounding="rect(-264.695,-249.66,529.391,499.32)" text="" font-familyName="" font-pixelSize="20" font-bold="0" font-underline="0" font-alignment="1" strokeStyle="0" markerStart="0" markerEnd="0" shadowEnabled="0" shadowOffsetX="0" shadowOffsetY="2" shadowBlur="4" shadowOpacity="160" blurEnabled="0" blurRadius="4" transform="matrix(1,0,0,1,545.402,430.703)" pers-center="0,0" pers-size="0,0" pers-start="0,0" pers-end="0,0" locked="0" mesh="" flag=""/>
            <path id="shapePath2" d="M318.4,402 C335.793,383.597 357.69,371.839 379.8,360.5 C410.409,342.796 444.799,333.94 478.5,324.3 C486.5,322.5 490.5,314.8 494.9,308.9 C506.67,293.941 522.465,282.773 537,270.7 C602.703,221.086 682.845,191.935 764.1,181.3 C769.3,179.9 772,184.5 774.6,188.3 C789,209.3 798.7,232.3 804.7,257 C811.481,282.573 811.591,309.855 806.6,335.7 C800.079,366.831 785.205,394.744 768.6,421.5 C764.454,427.457 757.992,433.461 765.6,440.8 C782.052,469.416 788.421,504.421 781,536.8 C776.5,558.8 766.3,577.5 751.5,593.7 C723.574,622.91 686.524,641.227 649,654.9 C621.007,664.61 591.902,670.198 563,676.3 C554.1,679 544.4,678.9 535.2,680.3 C533.1,680.6 532,679.8 530.7,678.6 C528.8,676.7 530.8,675.5 531.7,674.3 L619.4,560.9 C619.8,560.4 620.2,559.9 620.6,559.4 C627.8,549.3 627.7,549.5 619.1,540.3 C599.295,518.397 578.005,497.847 558.7,475.5 C554.7,470.6 549.6,467.9 543.5,468.7 C505.377,468.878 467.191,468.989 429.1,467.2 C423.1,466.9 418.8,469.2 414.9,474.2 C385.097,513.539 354.379,552.195 325.2,592 C322.9,595.2 320.8,595.4 317.8,592.8 C313.5,589 311.4,583.7 308.3,579.1 C272.252,526.714 267.48,446.172 318.4,402 Z" style="stroke:none;fill-rule:evenodd;fill:#00bef5;fill-opacity:1;"/>
        </g>
        <g id="Shape3">
            <desc shapeID="3" type="0" basicInfo-basicType="0" basicInfo-roundedRectRadius="12" basicInfo-polygonSides="6" basicInfo-starPoints="5" bounding="rect(-288.677,-261.413,577.354,522.827)" text="" font-familyName="" font-pixelSize="20" font-bold="0" font-underline="0" font-alignment="1" strokeStyle="0" markerStart="0" markerEnd="0" shadowEnabled="0" shadowOffsetX="0" shadowOffsetY="2" shadowBlur="4" shadowOpacity="160" blurEnabled="0" blurRadius="4" transform="matrix(1,0,0,1,688.401,599.135)" pers-center="0,0" pers-size="0,0" pers-start="0,0" pers-end="0,0" locked="0" mesh="" flag=""/>
            <path id="shapePath3" d="M405.9,855.3 C403.6,855.1 400.8,855 399.9,852.3 C399.1,849.8 401.2,848.1 402.7,846.2 L492.9,727.7 C495.9,724.2 498.9,722.1 503.9,722.8 C541.671,725.284 581.317,724.077 618,714.9 C620.5,713.6 623.7,713.1 625.5,716 C627.4,719 624.8,720.6 623,723 C610.573,738.825 600.555,756.314 588.5,772.4 C587.7,773.6 586.2,774.5 587,776.3 C587.9,778 589.6,777.7 591,777.5 C627.872,771.681 665.191,763.783 699.8,748.8 C722.8,739.6 744.8,727.8 765,713.3 C789.782,693.576 813.895,672.049 828.7,643.5 C844.297,618.046 851.332,589.177 858.8,560.7 C861.2,544.4 861.9,528 860.8,511.5 C859.412,485.969 850.163,460.604 834.2,440.6 C828.2,433.6 829,434 834.2,425.3 C852.02,399.615 855.7,368.398 866.6,340.1 C868.1,336.8 870.5,337.4 872.9,339.1 C888.169,348.94 901.454,361.458 913.7,374.8 C924.1,386.4 934,398.2 942.6,411.3 C958.5,435.7 968,462.8 974.6,490.8 C978.5,507.6 976.9,525.2 975.8,542.5 C974.1,569.5 966.1,595 955.4,619.6 C939.01,659.161 912.893,694.359 883.7,725.4 C868,743.5 848.1,757.1 829.5,771.9 C780.058,806.138 723.583,827.745 665.6,842.5 C634.7,848.9 603.7,854.1 572.3,856.8 C517.076,862.508 461.105,861.451 405.9,855.3 Z" style="stroke:none;fill-rule:evenodd;fill:#353537;fill-opacity:1;"/>
        </g>
        <g id="Shape4">
            <desc shapeID="4" type="0" basicInfo-basicType="0" basicInfo-roundedRectRadius="12" basicInfo-polygonSides="6" basicInfo-starPoints="5" bounding="rect(-244.78,-279.384,489.561,558.768)" text="" font-familyName="" font-pixelSize="20" font-bold="0" font-underline="0" font-alignment="1" strokeStyle="0" markerStart="0" markerEnd="0" shadowEnabled="0" shadowOffsetX="0" shadowOffsetY="2" shadowBlur="4" shadowOpacity="160" blurEnabled="0" blurRadius="4" transform="matrix(1,0,0,1,293.189,488.437)" pers-center="0,0" pers-size="0,0" pers-start="0,0" pers-end="0,0" locked="0" mesh="" flag=""/>
            <path id="shapePath4" d="M63.6,459.7 C71.5,439.7 80.1,420.2 91.5,402.1 C100.3,388.1 108.6,373.6 120.5,361.7 C145.938,329.747 178.817,304.48 213.6,283.3 C235.1,270.1 258,259.3 281.4,250.7 C305.501,239.543 331.608,235.161 356.7,227.3 C389.8,219.6 423.5,216.6 457.2,213 C482.3,209.749 507.748,212.55 532.8,209.1 C534.9,209 537.4,208.8 537.9,211.7 C538.4,214.2 536.1,214.7 534.6,215.9 C507.5,234.734 479.168,253.571 457.3,278.6 C453.7,283.1 449.2,287.3 442.2,286.9 C432.2,286.3 422.6,288.7 413,291 C384.448,297.092 354.869,302.891 328.4,315.6 C293.471,328.869 261.587,348.874 232.8,372.4 C212.7,391.5 195.3,412.7 181.3,436.6 C171.788,456.313 161.936,476.259 159.3,498.3 C155.1,518.3 154.7,538.5 157.4,558.9 C159.8,577 163.2,594.8 171.6,611.3 C172.5,613.1 172.6,615.8 175.2,616.1 C177.7,616.4 178.7,614.1 180.1,612.5 L224.1,556.9 C224.9,555.2 226.6,554.6 228.5,555.1 C230.3,555.6 230.3,557.1 230.6,558.7 C233.8,575.1 240.8,589.4 250.6,603.2 C260.2,616.8 271.7,627.7 284.7,637.6 C289.8,641.5 290.1,645 285.1,649.4 C254.731,687.334 223.56,724.726 194.7,763.8 C192,767.9 188.2,769.1 184.3,766.3 C164.3,751.9 145.3,736.5 128.4,718.4 C109.443,697.965 91.1528,676.214 78.4,651.3 C69,630.4 59,609.9 53.6,587.7 C43.8069,545.177 48.274,500.369 63.6,459.7 Z" style="stroke:none;fill-rule:evenodd;fill:#353537;fill-opacity:1;"/>
        </g>
        <g id="Shape5">
            <desc shapeID="5" type="0" basicInfo-basicType="0" basicInfo-roundedRectRadius="12" basicInfo-polygonSides="6" basicInfo-starPoints="5" bounding="rect(-165.131,-185.87,330.262,371.739)" text="" font-familyName="" font-pixelSize="20" font-bold="0" font-underline="0" font-alignment="1" strokeStyle="0" markerStart="0" markerEnd="0" shadowEnabled="0" shadowOffsetX="0" shadowOffsetY="2" shadowBlur="4" shadowOpacity="160" blurEnabled="0" blurRadius="4" transform="matrix(1,0,0,1,389.881,696.523)" pers-center="0,0" pers-size="0,0" pers-start="0,0" pers-end="0,0" locked="0" mesh="" flag=""/>
            <path id="shapePath5" d="M254.2,882.3 C248.2,882.9 244.6,880.6 242.2,875.1 C236.2,861.3 228.2,848.3 225.8,833 C224.2,823 223.3,814.7 231.8,805.6 L447.5,524.3 C456,513 466.2,509.9 479.1,510.8 C491.2,511.7 503.5,510.5 515.6,513.4 C517.9,514 520.5,514 522.1,515.6 C532.8,526.3 543.5,537 553.9,548 C555.9,550.1 555,553.2 552.8,555.6 C471.488,657.728 399.711,767.37 316.2,867.9 C313.9,871.1 311.5,874.3 309,877.4 C305.7,881.5 300.3,880.8 295.8,881.1 C281.977,883.286 268.076,881.831 254.2,882.3 Z" style="stroke:none;fill-rule:evenodd;fill:#00bef5;fill-opacity:1;"/>
        </g>
    </g>
</svg>
