<?xml version="1.0"?>
<svg version="1.1" xmlns="http://www.w3.org/2000/svg" xmlns:xlink="http://www.w3.org/1999/xlink" width="1000" height="1000">
    <desc iVinci="yes" version="4.6" gridStep="20" showGrid="no" snapToGrid="no" codePlatform="0"/>
    <g id="Layer1" name="Layer 1" opacity="1">
        <g id="Shape1">
            <desc shapeID="1" type="0" basicInfo-basicType="0" basicInfo-roundedRectRadius="12" basicInfo-polygonSides="6" basicInfo-starPoints="5" bounding="rect(-264.695,-249.66,529.391,499.32)" text="" font-familyName="" font-pixelSize="20" font-bold="0" font-underline="0" font-alignment="1" strokeStyle="0" markerStart="0" markerEnd="0" shadowEnabled="0" shadowOffsetX="0" shadowOffsetY="2" shadowBlur="4" shadowOpacity="160" blurEnabled="0" blurRadius="4" transform="matrix(1.07682,0,0,1.07683,535.174,391.225)" pers-center="0,0" pers-size="0,0" pers-start="0,0" pers-end="0,0" locked="0" mesh="" flag=""/>
            <path id="shapePath1" d="M290.733,360.317 C309.462,340.5 333.041,327.839 356.85,315.628 C389.81,296.564 426.843,287.027 463.133,276.647 C471.747,274.709 476.055,266.417 480.793,260.064 C493.467,243.956 510.475,231.929 526.127,218.929 C596.877,165.504 683.177,134.113 770.674,122.661 C776.273,121.154 779.181,126.107 781.98,130.199 C797.487,152.812 807.932,177.579 814.393,204.177 C821.695,231.715 821.814,261.093 816.439,288.923 C809.417,322.445 793.401,352.503 775.52,381.315 C774.873,382.284 774.766,383.899 774.012,384.33 C765.29,389.499 768.089,395.529 772.289,402.097 C790.005,432.911 796.864,470.606 788.872,505.473 C784.026,529.163 773.043,549.299 757.106,566.744 C727.034,598.197 687.138,617.923 646.731,632.646 C616.587,643.102 585.247,649.119 554.124,655.69 C544.541,658.597 534.095,658.489 524.189,659.997 C521.927,660.32 520.743,659.459 519.343,658.166 C517.297,656.12 519.451,654.828 520.42,653.536 L614.857,531.424 C615.288,530.886 615.719,530.347 616.149,529.809 C623.903,518.933 623.795,519.148 614.534,509.241 C593.207,485.656 570.282,463.527 549.494,439.463 C545.187,434.187 539.695,431.279 533.126,432.141 C492.074,432.332 450.955,432.452 409.938,430.526 C403.477,430.202 398.846,432.679 394.647,438.063 C362.553,480.424 329.476,522.05 298.055,564.913 C295.579,568.359 293.317,568.575 290.087,565.775 C285.457,561.683 283.195,555.976 279.857,551.022 C241.039,494.612 235.901,407.882 290.733,360.317 Z" style="stroke:none;fill-rule:evenodd;fill:#00bef5;fill-opacity:1;"/>
        </g>
        <g id="Shape2">
            <desc shapeID="2" type="0" basicInfo-basicType="0" basicInfo-roundedRectRadius="12" basicInfo-polygonSides="6" basicInfo-starPoints="5" bounding="rect(-288.677,-261.413,577.354,522.827)" text="" font-familyName="" font-pixelSize="20" font-bold="0" font-underline="0" font-alignment="1" strokeStyle="0" markerStart="0" markerEnd="0" shadowEnabled="0" shadowOffsetX="0" shadowOffsetY="2" shadowBlur="4" shadowOpacity="160" blurEnabled="0" blurRadius="4" transform="matrix(1.07682,0,0,1.07683,689.159,572.597)" pers-center="0,0" pers-size="0,0" pers-start="0,0" pers-end="0,0" locked="0" mesh="" flag=""/>
            <path id="shapePath2" d="M384.955,848.441 C382.479,848.226 379.464,848.118 378.494,845.211 C377.633,842.519 379.894,840.688 381.51,838.642 L478.639,711.039 C481.87,707.27 485.1,705.008 490.484,705.762 C531.157,708.436 573.849,707.137 613.35,697.255 C616.042,695.855 619.488,695.317 621.426,698.44 C623.472,701.67 620.672,703.393 618.734,705.977 C605.352,723.018 594.565,741.851 581.584,759.173 C580.722,760.465 579.107,761.434 579.968,763.372 C580.938,765.203 582.768,764.88 584.276,764.664 C623.98,758.398 664.167,749.894 701.434,733.759 C726.201,723.853 749.891,711.146 771.643,695.532 C798.329,674.293 824.295,651.112 840.237,620.37 C857.032,592.96 864.607,561.874 872.649,531.209 C875.234,513.656 875.988,495.996 874.803,478.229 C873.308,450.737 863.349,423.422 846.16,401.882 C839.699,394.344 840.56,394.775 846.16,385.407 C865.348,357.748 869.312,324.133 881.049,293.661 C882.664,290.107 885.248,290.754 887.833,292.584 C904.274,303.18 918.58,316.66 931.767,331.027 C942.966,343.518 953.627,356.225 962.887,370.331 C980.009,396.606 990.239,425.787 997.346,455.939 C1001.55,474.029 999.822,492.981 998.638,511.61 C996.807,540.685 988.193,568.144 976.671,594.634 C959.022,637.234 930.898,675.136 899.462,708.562 C882.556,728.052 861.127,742.697 841.098,758.634 C787.858,795.502 727.045,818.769 664.607,834.658 C631.333,841.55 597.951,847.149 564.139,850.057 C504.673,856.203 444.401,855.065 384.955,848.441 Z" style="stroke:none;fill-rule:evenodd;fill:#353537;fill-opacity:1;"/>
        </g>
        <g id="Shape3">
            <desc shapeID="3" type="0" basicInfo-basicType="0" basicInfo-roundedRectRadius="12" basicInfo-polygonSides="6" basicInfo-starPoints="5" bounding="rect(-244.78,-279.384,489.561,558.768)" text="" font-familyName="" font-pixelSize="20" font-bold="0" font-underline="0" font-alignment="1" strokeStyle="0" markerStart="0" markerEnd="0" shadowEnabled="0" shadowOffsetX="0" shadowOffsetY="2" shadowBlur="4" shadowOpacity="160" blurEnabled="0" blurRadius="4" transform="matrix(1.07682,0,0,1.07683,263.586,453.394)" pers-center="0,0" pers-size="0,0" pers-start="0,0" pers-end="0,0" locked="0" mesh="" flag=""/>
            <path id="shapePath3" d="M16.3579,422.449 C24.8648,400.913 34.1255,379.915 46.4013,360.424 C55.8774,345.349 64.815,329.735 77.6292,316.92 C105.022,282.513 140.427,255.305 177.882,232.497 C201.033,218.283 225.693,206.653 250.89,197.393 C276.843,185.379 304.955,180.66 331.975,172.195 C367.618,163.903 403.907,160.673 440.196,156.796 C467.225,153.296 494.628,156.312 521.604,152.597 C523.866,152.489 526.558,152.274 527.096,155.397 C527.634,158.089 525.158,158.627 523.542,159.919 C494.36,180.2 463.852,200.485 440.304,227.436 C436.427,232.282 431.582,236.805 424.044,236.374 C413.276,235.728 402.938,238.312 392.601,240.789 C361.855,247.349 330.004,253.594 301.501,267.279 C263.889,281.567 229.555,303.109 198.557,328.442 C176.912,349.01 158.176,371.838 143.1,397.575 C132.857,418.802 122.249,440.28 119.41,464.015 C114.887,485.551 114.457,507.303 117.364,529.27 C119.948,548.761 123.61,567.928 132.655,585.696 C133.624,587.634 133.732,590.542 136.532,590.865 C139.224,591.188 140.3,588.711 141.808,586.988 L189.188,527.117 C190.05,525.286 191.88,524.64 193.926,525.178 C195.865,525.717 195.865,527.332 196.188,529.055 C199.634,546.715 207.171,562.113 217.724,576.974 C228.062,591.618 240.445,603.356 254.444,614.016 C259.936,618.216 260.259,621.985 254.875,626.723 C222.173,667.571 188.607,707.836 157.53,749.912 C154.622,754.327 150.53,755.619 146.331,752.604 C124.794,737.098 104.335,720.514 86.1362,701.024 C65.7225,679.019 46.0275,655.597 32.2949,628.769 C22.1728,606.263 11.4045,584.188 5.58966,560.283 C-4.95575,514.494 -0.145508,466.243 16.3579,422.449 Z" style="stroke:none;fill-rule:evenodd;fill:#353537;fill-opacity:1;"/>
        </g>
        <g id="Shape4">
            <desc shapeID="4" type="0" basicInfo-basicType="0" basicInfo-roundedRectRadius="12" basicInfo-polygonSides="6" basicInfo-starPoints="5" bounding="rect(-165.131,-185.87,330.262,371.739)" text="" font-familyName="" font-pixelSize="20" font-bold="0" font-underline="0" font-alignment="1" strokeStyle="0" markerStart="0" markerEnd="0" shadowEnabled="0" shadowOffsetX="0" shadowOffsetY="2" shadowBlur="4" shadowOpacity="160" blurEnabled="0" blurRadius="4" transform="matrix(1.07682,0,0,1.07683,367.705,677.466)" pers-center="0,0" pers-size="0,0" pers-start="0,0" pers-end="0,0" locked="0" mesh="" flag=""/>
            <path id="shapePath4" d="M221.601,877.516 C215.14,878.162 211.263,875.685 208.679,869.762 C202.218,854.902 193.603,840.904 191.019,824.428 C189.296,813.66 188.327,804.722 197.48,794.923 L429.751,492.012 C438.904,479.844 449.888,476.506 463.779,477.475 C476.808,478.444 490.053,477.152 503.083,480.275 C505.56,480.921 508.359,480.921 510.082,482.644 C521.604,494.166 533.126,505.688 544.325,517.533 C546.479,519.794 545.51,523.132 543.141,525.717 C455.582,635.691 378.291,753.757 288.364,862.009 C285.887,865.455 283.303,868.901 280.611,872.239 C277.057,876.654 271.242,875.9 266.397,876.223 C251.511,878.578 236.542,877.011 221.601,877.516 Z" style="stroke:none;fill-rule:evenodd;fill:#00bef5;fill-opacity:1;"/>
        </g>
    </g>
</svg>
